HIERARCHY
ROOT Hips
{
	OFFSET 0.000000 0.000000 0.000000
	CHANNELS 6 Xposition Yposition Zposition Xrotation Yrotation Zrotation
	JOINT LeftUpLeg_virtual
	{
		OFFSET 0.000000 0.000000 0.000000
		CHANNELS 3 Xrotation Yrotation Zrotation
		JOINT LeftUpLeg
		{
			OFFSET 10.205400 -3.823500 0.155100
			CHANNELS 3 Xrotation Yrotation Zrotation
			JOINT LeftLeg
			{
				OFFSET 0.708757 -12.982077 0.567790
				CHANNELS 3 Xrotation Yrotation Zrotation
				JOINT LeftFoot
				{
					OFFSET -0.708756 -10.717838 -2.184338
					CHANNELS 3 Xrotation Yrotation Zrotation
					JOINT LeftToeBase
					{
						OFFSET 0.108149 -7.191104 7.560241
						CHANNELS 3 Xrotation Yrotation Zrotation
						JOINT LeftToe_End
						{
							OFFSET 0.070230 0.081724 4.490308
							CHANNELS 3 Xrotation Yrotation Zrotation
							End Site
							{
								OFFSET 0 0 0
							}
						}
					}
				}
			}
		}
	}
	JOINT RightUpLeg_virtual
	{
		OFFSET 0.000000 0.000000 0.000000
		CHANNELS 3 Xrotation Yrotation Zrotation
		JOINT RightUpLeg
		{
			OFFSET -10.205400 -3.823500 0.005500
			CHANNELS 3 Xrotation Yrotation Zrotation
			JOINT RightLeg
			{
				OFFSET -0.708756 -12.982134 0.610632
				CHANNELS 3 Xrotation Yrotation Zrotation
				JOINT RightFoot
				{
					OFFSET 0.708754 -10.717769 -1.945823
					CHANNELS 3 Xrotation Yrotation Zrotation
					JOINT RightToeBase
					{
						OFFSET -0.108140 -7.191069 7.372968
						CHANNELS 3 Xrotation Yrotation Zrotation
						JOINT RightToe_End
						{
							OFFSET -0.070227 0.081735 4.479403
							CHANNELS 3 Xrotation Yrotation Zrotation
							End Site
							{
								OFFSET 0 0 0
							}
						}
					}
				}
			}
		}
	}
	JOINT Spine_virtual
	{
		OFFSET 0.000000 0.000000 0.000000
		CHANNELS 3 Xrotation Yrotation Zrotation
		JOINT Spine
		{
			OFFSET 0.000000 6.876099 0.125700
			CHANNELS 3 Xrotation Yrotation Zrotation
			JOINT Spine1
			{
				OFFSET 0.000000 5.730043 0.104720
				CHANNELS 3 Xrotation Yrotation Zrotation
				JOINT Spine1_split
				{
					OFFSET 0.000000 5.730043 0.104720
					CHANNELS 3 Xrotation Yrotation Zrotation
					JOINT Spine2
					{
						OFFSET 0.000000 5.730043 0.104720
						CHANNELS 3 Xrotation Yrotation Zrotation
						JOINT Neck_virtual
						{
							OFFSET 0.000000 0.000000 0.000000
							CHANNELS 3 Xrotation Yrotation Zrotation
							JOINT Neck
							{
								OFFSET 0.000000 10.314075 0.188496
								CHANNELS 3 Xrotation Yrotation Zrotation
								JOINT Head
								{
									OFFSET 0.000000 7.643700 -2.377400
									CHANNELS 3 Xrotation Yrotation Zrotation
									JOINT HeadTop_End
									{
										OFFSET 0.000000 43.788605 -13.619600
										CHANNELS 3 Xrotation Yrotation Zrotation
										End Site
										{
											OFFSET 0 0 0
										}
									}
								}
							}
						}
						JOINT LeftShoulder_virtual
						{
							OFFSET 0.000000 0.000000 0.000000
							CHANNELS 3 Xrotation Yrotation Zrotation
							JOINT LeftShoulder
							{
								OFFSET 2.196100 4.412489 0.087492
								CHANNELS 3 Xrotation Yrotation Zrotation
								JOINT LeftShoulder_split
								{
									OFFSET 2.196100 4.412489 0.087492
									CHANNELS 3 Xrotation Yrotation Zrotation
									JOINT LeftArm
									{
										OFFSET 8.771219 -2.981674 -0.026999
										CHANNELS 3 Xrotation Yrotation Zrotation
										JOINT LeftForeArm
										{
											OFFSET 8.512804 0.000000 -0.000000
											CHANNELS 3 Xrotation Yrotation Zrotation
											JOINT LeftHand
											{
												OFFSET 18.484802 0.000000 -0.000000
												CHANNELS 3 Xrotation Yrotation Zrotation
												End Site
												{
													OFFSET 0 0 0
												}
											}
										}
									}
								}
							}
						}
						JOINT RightShoulder_virtual
						{
							OFFSET 0.000000 0.000000 0.000000
							CHANNELS 3 Xrotation Yrotation Zrotation
							JOINT RightShoulder
							{
								OFFSET -2.196100 4.412496 0.070690
								CHANNELS 3 Xrotation Yrotation Zrotation
								JOINT RightShoulder_split
								{
									OFFSET -2.196100 4.412496 0.070690
									CHANNELS 3 Xrotation Yrotation Zrotation
									JOINT RightArm
									{
										OFFSET -8.771282 -2.981682 -0.094208
										CHANNELS 3 Xrotation Yrotation Zrotation
										JOINT RightForeArm
										{
											OFFSET -8.494598 0.000000 0.000000
											CHANNELS 3 Xrotation Yrotation Zrotation
											JOINT RightHand
											{
												OFFSET -18.483803 0.000000 0.000001
												CHANNELS 3 Xrotation Yrotation Zrotation
												End Site
												{
													OFFSET 0 0 0
												}
											}
										}
									}
								}
							}
						}
					}
				}
			}
		}
	}
}
MOTION
Frames: 10
Frame Time: 0.03333333
0.124170 27.382502 0.471106 0.000000 0.000000 0.000000 10.430250 5.427477 -1.186535 -47.614089 4.375259 1.849931 75.699977 8.548722 0.611220 -39.600358 9.178801 -6.317010 -5.496543 -0.493182 -0.007314 0.000000 0.000000 0.000000 10.962466 4.868094 -1.044991 -36.505753 -12.883063 -2.981442 74.897409 -6.185170 -4.961382 -46.935953 -13.467077 5.662543 2.177999 1.318108 -0.537349 0.000000 0.000000 0.000000 10.485219 2.857177 -0.672762 9.383246 1.266893 1.687430 8.820854 1.913329 -0.471746 0.814450 -0.633782 0.401424 0.000000 0.000000 0.000000 8.886948 0.818501 0.157663 -10.467889 -1.291630 6.062954 -25.764496 1.838382 -7.615884 0.000000 0.000000 0.000000 9.132150 0.481080 0.007074 3.291724 -24.535378 3.915281 -2.658657 0.697792 -3.236507 -62.264660 -24.994282 -65.045005 177.656635 -72.463451 175.783524 0.000000 0.000000 0.000000 8.265377 0.617860 0.278929 0.012776 12.086258 10.584350 0.921223 6.537815 0.012060 -63.002942 31.281467 50.700173 -179.202990 70.406027 178.424103 0.000000 0.000000 0.000000 
0.125583 27.384886 0.480473 0.000000 0.000000 0.000000 10.438703 5.431857 -1.195525 -47.612931 4.372909 1.855992 75.701971 8.562397 0.600878 -39.613161 9.189501 -6.307969 -5.485632 -0.492485 -0.015922 0.000000 0.000000 0.000000 10.969514 4.860202 -1.052284 -36.496347 -12.882082 -2.971361 74.874931 -6.187184 -4.961901 -46.929489 -13.466561 5.667891 2.156885 1.320196 -0.538690 0.000000 0.000000 0.000000 10.494651 2.849178 -0.680687 9.379001 1.272251 1.678931 8.817329 1.917182 -0.479966 0.822332 -0.615983 0.380413 0.000000 0.000000 0.000000 8.883369 0.823116 0.149006 -10.453160 -1.307215 6.085390 -25.758602 1.833309 -7.618062 0.000000 0.000000 0.000000 9.129184 0.487086 0.005421 3.296604 -24.532588 3.924076 -2.627617 0.676087 -3.248030 -62.353514 -25.033926 -65.124351 177.683997 -72.356456 175.808441 0.000000 0.000000 0.000000 8.258831 0.619778 0.272078 0.009809 12.070183 10.596624 0.902676 6.581190 0.025754 -63.053308 31.269658 50.756874 -179.202198 70.274819 178.407451 0.000000 0.000000 0.000000 
0.129703 27.387243 0.489756 0.000000 0.000000 0.000000 10.454200 5.426466 -1.212032 -47.612924 4.373281 1.874316 75.712538 8.574276 0.585212 -39.637900 9.202408 -6.290655 -5.466625 -0.492412 -0.020557 0.000000 0.000000 0.000000 10.984524 4.850807 -1.068301 -36.482755 -12.893786 -2.959087 74.837037 -6.186065 -4.963916 -46.913865 -13.460649 5.681884 2.144939 1.322771 -0.541848 0.000000 0.000000 0.000000 10.507804 2.828314 -0.691902 9.380913 1.288311 1.663972 8.798766 1.935430 -0.489809 0.829589 -0.601351 0.363900 0.000000 0.000000 0.000000 8.865202 0.841567 0.136020 -10.441619 -1.332885 6.132806 -25.756041 1.808094 -7.610845 0.000000 0.000000 0.000000 9.105879 0.507559 0.002285 3.300038 -24.527737 3.934034 -2.608900 0.660721 -3.254746 -62.448064 -25.121673 -65.238402 177.677713 -72.246271 175.795791 0.000000 0.000000 0.000000 8.237917 0.636230 0.261893 0.005377 12.049005 10.632964 0.911088 6.599283 0.035652 -63.132921 31.215966 50.818090 -179.175273 70.122684 178.360022 0.000000 0.000000 0.000000 
0.136058 27.388161 0.497183 0.000000 0.000000 0.000000 10.471783 5.409914 -1.229995 -47.616319 4.376645 1.896798 75.734012 8.579008 0.569305 -39.665774 9.212859 -6.272768 -5.448314 -0.493639 -0.017092 0.000000 0.000000 0.000000 11.002595 4.841033 -1.087470 -36.475631 -12.914105 -2.951597 74.799505 -6.181769 -4.966023 -46.889679 -13.453452 5.704215 2.142187 1.325712 -0.546213 0.000000 0.000000 0.000000 10.521382 2.800010 -0.701917 9.387726 1.310871 1.645491 8.770222 1.962950 -0.499276 0.826341 -0.585007 0.357347 0.000000 0.000000 0.000000 8.836597 0.869865 0.121706 -10.440337 -1.362460 6.193357 -25.767411 1.770947 -7.598291 0.000000 0.000000 0.000000 9.070561 0.536440 -0.003745 3.301649 -24.526504 3.941365 -2.608796 0.676233 -3.257741 -62.515212 -25.216210 -65.334011 177.644355 -72.197135 175.760520 0.000000 0.000000 0.000000 8.207184 0.663382 0.251169 0.000030 12.025490 10.684980 0.936066 6.591412 0.046078 -63.211686 31.141763 50.853043 -179.141969 70.014930 178.305859 0.000000 0.000000 0.000000 
0.143246 27.387781 0.503649 0.000000 0.000000 0.000000 10.487986 5.390530 -1.243875 -47.620291 4.385917 1.914717 75.760588 8.577525 0.555558 -39.693607 9.216854 -6.253770 -5.436539 -0.496064 -0.005756 0.000000 0.000000 0.000000 11.018664 4.833220 -1.103063 -36.478500 -12.935570 -2.951916 74.772615 -6.174917 -4.969764 -46.862030 -13.450457 5.733053 2.138313 1.328008 -0.550343 0.000000 0.000000 0.000000 10.533750 2.776209 -0.708530 9.398049 1.333183 1.626585 8.737723 1.992077 -0.507519 0.823771 -0.568555 0.361834 0.000000 0.000000 0.000000 8.804231 0.899707 0.109122 -10.455715 -1.389636 6.251222 -25.798997 1.736629 -7.584689 0.000000 0.000000 0.000000 9.032460 0.565149 -0.012411 3.302440 -24.531953 3.945197 -2.621310 0.719867 -3.266616 -62.537007 -25.294574 -65.375005 177.604548 -72.230931 175.728746 0.000000 0.000000 0.000000 8.173617 0.694054 0.241797 -0.004834 12.004489 10.738621 0.967399 6.569325 0.046226 -63.274340 31.074769 50.853419 -179.118569 69.989030 178.266872 0.000000 0.000000 0.000000 
0.150141 27.387054 0.508671 0.000000 0.000000 0.000000 10.501540 5.376555 -1.250023 -47.625885 4.402993 1.921659 75.782595 8.573497 0.545833 -39.715580 9.214986 -6.236331 -5.429234 -0.498364 0.008417 0.000000 0.000000 0.000000 11.031698 4.830055 -1.111440 -36.490006 -12.949769 -2.958903 74.758592 -6.167505 -4.977343 -46.837845 -13.455027 5.762073 2.128783 1.329096 -0.553353 0.000000 0.000000 0.000000 10.543625 2.763413 -0.708770 9.409542 1.348985 1.611932 8.707367 2.014908 -0.514374 0.822309 -0.566871 0.366875 0.000000 0.000000 0.000000 8.776841 0.923215 0.100006 -10.486573 -1.408719 6.294574 -25.844358 1.719551 -7.571643 0.000000 0.000000 0.000000 9.000185 0.585836 -0.024107 3.302415 -24.539417 3.945100 -2.643486 0.767230 -3.285211 -62.520649 -25.329603 -65.355560 177.572774 -72.327414 175.714539 0.000000 0.000000 0.000000 8.145771 0.719906 0.233960 -0.007098 11.987403 10.780257 0.994418 6.543777 0.034457 -63.319296 31.045880 50.836767 -179.116301 70.035824 178.257214 0.000000 0.000000 0.000000 
0.155762 27.387211 0.511744 0.000000 0.000000 0.000000 10.511916 5.370785 -1.249069 -47.631820 4.424041 1.916169 75.788401 8.569487 0.544005 -39.721061 9.211143 -6.227596 -5.422797 -0.499304 0.019758 0.000000 0.000000 0.000000 11.041799 4.831543 -1.111473 -36.504673 -12.951726 -2.970166 74.751359 -6.161295 -4.988388 -46.819997 -13.465728 5.785207 2.125494 1.328890 -0.552901 0.000000 0.000000 0.000000 10.552571 2.765641 -0.705584 9.419698 1.354977 1.603207 8.683967 2.026722 -0.520166 0.820698 -0.573805 0.370040 0.000000 0.000000 0.000000 8.760790 0.935449 0.094653 -10.527544 -1.416949 6.317057 -25.891700 1.723814 -7.559897 0.000000 0.000000 0.000000 8.979921 0.595645 -0.035278 3.300899 -24.540714 3.942220 -2.668422 0.804458 -3.314207 -62.491955 -25.322795 -65.308438 177.567884 -72.432968 175.733787 0.000000 0.000000 0.000000 8.125882 0.733722 0.227307 -0.005696 11.972688 10.804955 1.010094 6.523858 0.030242 -63.354745 31.066883 50.828092 -179.136205 70.107971 178.277377 0.000000 0.000000 0.000000 
0.159543 27.389753 0.513584 0.000000 0.000000 0.000000 10.522063 5.375496 -1.244023 -47.633217 4.446331 1.900399 75.768566 8.571039 0.548593 -39.713892 9.207832 -6.220780 -5.414577 -0.498723 0.026361 0.000000 0.000000 0.000000 11.051355 4.839216 -1.106502 -36.516824 -12.943667 -2.981001 74.741968 -6.158126 -5.001081 -46.806443 -13.480854 5.799949 2.134486 1.327700 -0.548527 0.000000 0.000000 0.000000 10.562310 2.785042 -0.703783 9.427124 1.350453 1.602114 8.669267 2.026481 -0.524610 0.824142 -0.585984 0.375277 0.000000 0.000000 0.000000 8.757861 0.934409 0.093196 -10.567401 -1.414941 6.320108 -25.925214 1.745154 -7.547934 0.000000 0.000000 0.000000 8.970941 0.595728 -0.041769 3.297979 -24.529195 3.939683 -2.691890 0.817751 -3.332569 -62.479695 -25.296447 -65.278174 177.584017 -72.491298 175.770219 0.000000 0.000000 0.000000 8.117034 0.733609 0.220583 -0.000760 11.960395 10.813026 1.011396 6.519302 0.032374 -63.394449 31.127030 50.847777 -179.165943 70.153665 178.313905 0.000000 0.000000 0.000000 
0.161431 27.394815 0.514553 0.000000 0.000000 0.000000 10.532176 5.389644 -1.239180 -47.628849 4.465978 1.879836 75.725426 8.582030 0.557276 -39.700546 9.205106 -6.207849 -5.405468 -0.496861 0.028072 0.000000 0.000000 0.000000 11.060439 4.852159 -1.101405 -36.521575 -12.931169 -2.986220 74.723007 -6.157433 -5.013159 -46.790467 -13.497898 5.808174 2.147094 1.326230 -0.542257 0.000000 0.000000 0.000000 10.571297 2.815059 -0.706112 9.431174 1.338629 1.609767 8.662704 2.017558 -0.527280 0.829738 -0.594374 0.374601 0.000000 0.000000 0.000000 8.764592 0.924075 0.094348 -10.592578 -1.404570 6.311765 -25.934945 1.773539 -7.531241 0.000000 0.000000 0.000000 8.969737 0.589847 -0.043623 3.295166 -24.505949 3.942086 -2.705782 0.802748 -3.329391 -62.497030 -25.260393 -65.286923 177.599576 -72.491325 175.794439 0.000000 0.000000 0.000000 8.118975 0.722850 0.214149 0.007447 11.949999 10.812956 1.002647 6.528031 0.036532 -63.444548 31.202353 50.897876 -179.191543 70.157326 178.348506 0.000000 0.000000 0.000000 
0.162005 27.401455 0.514380 0.000000 0.000000 0.000000 10.539479 5.408602 -1.239059 -47.620642 4.479181 1.863245 75.675019 8.598704 0.569123 -39.681534 9.203163 -6.190367 -5.395825 -0.494139 0.024304 0.000000 0.000000 0.000000 11.067312 4.867310 -1.100521 -36.515141 -12.921921 -2.982896 74.691773 -6.157869 -5.022209 -46.769089 -13.513444 5.813063 2.153607 1.325105 -0.536886 0.000000 0.000000 0.000000 10.578057 2.847579 -0.715540 9.432111 1.325268 1.623597 8.663289 2.006241 -0.528262 0.838785 -0.593200 0.375813 0.000000 0.000000 0.000000 8.773104 0.910656 0.096360 -10.596461 -1.391748 6.301078 -25.917033 1.801624 -7.504732 0.000000 0.000000 0.000000 8.974229 0.581928 -0.041239 3.295412 -24.482685 3.950925 -2.720165 0.771667 -3.310602 -62.545996 -25.215098 -65.326880 177.599467 -72.480424 175.791447 0.000000 0.000000 0.000000 8.126572 0.708108 0.210358 0.016225 11.942413 10.814999 0.996870 6.539505 0.039881 -63.505104 31.262828 50.957456 -179.196816 70.152477 178.360432 0.000000 0.000000 0.000000 
